<?xml version="1.0" encoding="UTF-8" standalone="no" ?>
<svg width="8" height="11" viewBox="0 0 8 11" fill="none" xmlns="http://www.w3.org/2000/svg">
    <path d="M7 10.0587V9.33033L2.49019 5.77285C2.44596 5.73682 2.41993 5.68154 2.41993 5.62447C2.41993 5.56598 2.44596 5.51212 2.49019 5.47502L7 1.91861V1.18992C7 1.11644 6.95898 1.0501 6.89335 1.01907C6.82773 0.986971 6.74961 0.996245 6.69326 1.04047L1.07133 5.47574C1.02675 5.51283 1 5.56669 1 5.62518C1 5.68225 1.02675 5.73754 1.07133 5.77356L6.69362 10.2081C6.74961 10.2538 6.82808 10.2609 6.89371 10.2288C6.95898 10.1985 7 10.1314 7 10.0587Z" fill="#A6A6A6" stroke="#A6A6A6" stroke-width="0.5"/>
    </svg>